<svg xmlns="http://www.w3.org/2000/svg" viewBox="0 0 116 22"><defs><style>.cls-1{fill:none;}.cls-2{fill:#fff;}</style></defs><title>Recurso 2</title><g id="Capa_2" data-name="Capa 2"><g id="Capa_1-2" data-name="Capa 1"><g id="Group_6" data-name="Group 6"><g id="customer_logo_behance" data-name="customer logo behance"><rect id="customer_logo_behance_background" data-name="customer logo behance background" class="cls-1" width="116" height="22"/><g id="behance_logo" data-name="behance logo"><path id="Shape" class="cls-2" d="M93.2,18.86a4.52,4.52,0,0,1-1.84-1.27,4.59,4.59,0,0,1-1.15-1.9,6.92,6.92,0,0,1-.4-2.47,6.91,6.91,0,0,1,.4-2.42,6.26,6.26,0,0,1,1.21-2,5.83,5.83,0,0,1,1.84-1.27,6.66,6.66,0,0,1,2.41-.46,4.84,4.84,0,0,1,2.53.58A4.59,4.59,0,0,1,100,9.25a6.85,6.85,0,0,1,1,2.18,7.81,7.81,0,0,1,.23,2.59H92.91a3.3,3.3,0,0,0,.81,2.19,2.89,2.89,0,0,0,2.07.69,3.07,3.07,0,0,0,1.67-.46,2.31,2.31,0,0,0,.86-1h2.76a5.66,5.66,0,0,1-2.07,3,6.14,6.14,0,0,1-3.34.92A6.76,6.76,0,0,1,93.2,18.86Zm-61.68,0a4.59,4.59,0,0,1-1.84-1.27,4.7,4.7,0,0,1-1.15-1.9,6.92,6.92,0,0,1-.4-2.47,6.91,6.91,0,0,1,.4-2.42,6.1,6.1,0,0,1,1.22-2,5.72,5.72,0,0,1,1.84-1.27A6.38,6.38,0,0,1,34,7.12a5.29,5.29,0,0,1,2.59.58,4.67,4.67,0,0,1,1.78,1.55,6.82,6.82,0,0,1,1,2.18A12,12,0,0,1,39.51,14H31.18a3.28,3.28,0,0,0,.8,2.24,2.79,2.79,0,0,0,2.07.69,3.09,3.09,0,0,0,1.67-.46,2.31,2.31,0,0,0,.86-1h2.81a5.55,5.55,0,0,1-2.07,3,6.11,6.11,0,0,1-3.33.92A6.76,6.76,0,0,1,31.52,18.86ZM81,18.8a4.84,4.84,0,0,1-1.84-1.21A5.55,5.55,0,0,1,78,15.75a6.3,6.3,0,0,1-.4-2.36,6.71,6.71,0,0,1,.4-2.47,6,6,0,0,1,1.15-2A5.9,5.9,0,0,1,81,7.58a6.72,6.72,0,0,1,2.47-.46,7.13,7.13,0,0,1,1.95.29,4.87,4.87,0,0,1,1.67.8A3.61,3.61,0,0,1,88.26,9.6a5,5,0,0,1,.52,2h-3.1a2,2,0,0,0-1.94-2.08,1.63,1.63,0,0,0-.31,0,2.1,2.1,0,0,0-1.26.35,2.62,2.62,0,0,0-.86.92,3.51,3.51,0,0,0-.46,1.2,5,5,0,0,0-.12,1.33,8.81,8.81,0,0,0,.12,1.26,3.52,3.52,0,0,0,.46,1.16,2.85,2.85,0,0,0,.8.86,2.14,2.14,0,0,0,1.26.34,2.58,2.58,0,0,0,1.78-.63,2.68,2.68,0,0,0,.75-1.73h3a5.32,5.32,0,0,1-1.78,3.51,5.8,5.8,0,0,1-3.8,1.21A5.9,5.9,0,0,1,81,18.8ZM55.44,19a3.6,3.6,0,0,1-1.27-.63,3.38,3.38,0,0,1-.86-1.09A4.4,4.4,0,0,1,53,15.75a3.35,3.35,0,0,1,.35-1.61,3.69,3.69,0,0,1,.86-1,4.24,4.24,0,0,1,1.26-.58,10.45,10.45,0,0,1,1.44-.28l1.38-.18c.46-.05.86-.11,1.21-.17a3.2,3.2,0,0,0,.86-.4.82.82,0,0,0,.29-.75,1.57,1.57,0,0,0-.18-.8A1.68,1.68,0,0,0,60,9.49a2,2,0,0,0-.63-.23,3.55,3.55,0,0,0-.8-.06,2.18,2.18,0,0,0-1.44.4,2,2,0,0,0-.63,1.32H53.37a3.44,3.44,0,0,1,.51-1.79,4.4,4.4,0,0,1,1.27-1.2,5.58,5.58,0,0,1,1.72-.64,11,11,0,0,1,1.9-.17c.58,0,1.15.06,1.78.12a4.52,4.52,0,0,1,1.61.46,3.27,3.27,0,0,1,1.21,1,2.91,2.91,0,0,1,.46,1.67v6.05a12.61,12.61,0,0,0,.11,1.5,2.53,2.53,0,0,0,.4,1.09H61.13a1.43,1.43,0,0,1-.23-.52,1.85,1.85,0,0,1-.06-.57A4.49,4.49,0,0,1,59.06,19a6.6,6.6,0,0,1-2.07.29A4.53,4.53,0,0,1,55.44,19Zm10,0V7.41h3.1V9h.06A3.43,3.43,0,0,1,70.2,7.58a4.94,4.94,0,0,1,2-.46,5.21,5.21,0,0,1,2.07.34,2.78,2.78,0,0,1,1.26,1,5,5,0,0,1,.69,1.5,9.93,9.93,0,0,1,.18,2V19H73.2v-6.5a4.13,4.13,0,0,0-.46-2.13,1.76,1.76,0,0,0-1.61-.75,2.31,2.31,0,0,0-1.9.86A4.34,4.34,0,0,0,68.65,13v6ZM48.42,19v-6.5A3.94,3.94,0,0,0,48,10.35a1.65,1.65,0,0,0-1.55-.69,2.21,2.21,0,0,0-1.84.74A4.24,4.24,0,0,0,44,12.93V19H40.84V3H44V9h.06a3.38,3.38,0,0,1,1.55-1.44,4.35,4.35,0,0,1,1.84-.46,5.24,5.24,0,0,1,2.07.34,3.19,3.19,0,0,1,1.26,1,3.9,3.9,0,0,1,.63,1.5,9.93,9.93,0,0,1,.18,2V19Zm-34.77-.06V3h7.53a8.53,8.53,0,0,1,2.07.23,4.5,4.5,0,0,1,1.61.64,2.64,2.64,0,0,1,1,1.21A4.63,4.63,0,0,1,26.24,7a3.28,3.28,0,0,1-.58,2,4.24,4.24,0,0,1-1.61,1.33,3.79,3.79,0,0,1,2.18,1.5A4.47,4.47,0,0,1,27,14.32a4.64,4.64,0,0,1-.46,2.07,3.83,3.83,0,0,1-1.27,1.44,6.07,6.07,0,0,1-1.84.81,8.46,8.46,0,0,1-2.07.28ZM30.55,5.68V4.13H37V5.68Z"/></g></g></g></g></g></svg>