<svg xmlns="http://www.w3.org/2000/svg" viewBox="0 0 116 22"><defs><style>.cls-1{fill:none;}.cls-2{fill:#fff;}.cls-3{fill:#071fc8;}</style></defs><title>Recurso 1</title><g id="Capa_2" data-name="Capa 2"><g id="Capa_1-2" data-name="Capa 1"><rect id="customer_logo_cesis_background" data-name="customer logo cesis background" class="cls-1" width="116" height="22"/><g id="Logo_cesis-logo-ver2_white" data-name="Logo cesis-logo-ver2 white"><rect id="Logo_cesis-logo-ver2_white_background" data-name="Logo cesis-logo-ver2 white background" class="cls-1" x="24.26" y="3.03" width="68.24" height="16.69"/><g id="Group"><path id="Combined_Shape" data-name="Combined Shape" class="cls-2" d="M32.87,19.09h-.33a8.09,8.09,0,0,1-3-.58,7.19,7.19,0,0,1-2.43-1.6,7.51,7.51,0,0,1-1.63-2.45,8.14,8.14,0,0,1-.58-3.08,8.2,8.2,0,0,1,.58-3.1,7.2,7.2,0,0,1,4-4,8.16,8.16,0,0,1,3-.57h.37a7.41,7.41,0,0,1,4,1.15,7,7,0,0,1,2.52,3L35.83,9.29a3.83,3.83,0,0,0-1.29-1.53,3.51,3.51,0,0,0-1.84-.52h-.2a3.81,3.81,0,0,0-1.41.28,3.75,3.75,0,0,0-1.2.85,3.82,3.82,0,0,0-.81,1.28,5,5,0,0,0,0,3.44,3.88,3.88,0,0,0,.82,1.29,3.68,3.68,0,0,0,1.21.85,3.54,3.54,0,0,0,1.44.3h.11a3.77,3.77,0,0,0,2-.55,3.81,3.81,0,0,0,1.34-1.58l3.56,1.52a8.11,8.11,0,0,1-2.65,3A7.32,7.32,0,0,1,32.87,19.09Zm16,0h-.33a8,8,0,0,1-3-.58,7.28,7.28,0,0,1-2.44-1.6,7.38,7.38,0,0,1-1.62-2.44,7.94,7.94,0,0,1-.57-3.08,7.76,7.76,0,0,1,.56-3,7.44,7.44,0,0,1,4-4.1,7.14,7.14,0,0,1,3-.65h.19a7.93,7.93,0,0,1,3,.58,6.39,6.39,0,0,1,2.28,1.59,6.85,6.85,0,0,1,1.39,2.41,9.08,9.08,0,0,1,.48,3v.35a1.71,1.71,0,0,0,0,.32,1.84,1.84,0,0,0,0,.33H44.71a4.05,4.05,0,0,0,.49,1.52,3.46,3.46,0,0,0,.92,1.06,3.39,3.39,0,0,0,1.2.64,4.48,4.48,0,0,0,1.31.2h.1A3.81,3.81,0,0,0,50.85,15a4.32,4.32,0,0,0,1.37-1.51l3.22,1.6A8,8,0,0,1,52.73,18,7.69,7.69,0,0,1,48.82,19.09ZM48.37,6.83a3.69,3.69,0,0,0-2.13.7,3.84,3.84,0,0,0-1.33,2h7a2.58,2.58,0,0,0-.25-.86,3.11,3.11,0,0,0-.64-.88A3.67,3.67,0,0,0,50,7.1a4,4,0,0,0-1.44-.27ZM85.73,19.08a8.43,8.43,0,0,1-2.39-.35,7.17,7.17,0,0,1-1.93-.93A6.18,6.18,0,0,1,80,16.47,5.85,5.85,0,0,1,79.18,15l3.46-1.48A3.62,3.62,0,0,0,84,15.14a3.36,3.36,0,0,0,1.84.55H86a3.21,3.21,0,0,0,1.52-.39,1.08,1.08,0,0,0,.65-.91,1.14,1.14,0,0,0-.53-1,5.14,5.14,0,0,0-1.78-.64l-2-.44a7.68,7.68,0,0,1-1.4-.47,5.36,5.36,0,0,1-1.29-.83,4.21,4.21,0,0,1-1-1.21,3.36,3.36,0,0,1-.44-1.67,3.89,3.89,0,0,1,.46-1.89,4.35,4.35,0,0,1,1.29-1.41A6.08,6.08,0,0,1,83.34,4a8.67,8.67,0,0,1,2.26-.31h.21a8.25,8.25,0,0,1,3.56.81,5,5,0,0,1,2.39,2.57L88.42,8.43A2.54,2.54,0,0,0,87.2,7.19a3.67,3.67,0,0,0-1.6-.39h-.06a3,3,0,0,0-1.38.34,1,1,0,0,0-.65.88.91.91,0,0,0,.54.8,6.3,6.3,0,0,0,1.41.53l2.22.53a6.44,6.44,0,0,1,3.3,1.7,4,4,0,0,1,.64,4.56,4.86,4.86,0,0,1-1.26,1.52,6.47,6.47,0,0,1-1.93,1.05,8.06,8.06,0,0,1-2.43.38h-.27Zm-21.8,0a8.45,8.45,0,0,1-2.4-.35,7,7,0,0,1-1.93-.93,6.45,6.45,0,0,1-1.38-1.33A6.12,6.12,0,0,1,57.37,15l3.46-1.48a3.62,3.62,0,0,0,1.35,1.67,3.3,3.3,0,0,0,1.83.55h.2a3.28,3.28,0,0,0,1.53-.39,1.08,1.08,0,0,0,.65-.91,1.13,1.13,0,0,0-.52-1,5.19,5.19,0,0,0-1.79-.64l-2-.45a7,7,0,0,1-1.41-.46,6,6,0,0,1-1.29-.83,4,4,0,0,1-1-1.21,3.36,3.36,0,0,1-.44-1.67,3.94,3.94,0,0,1,.45-1.9,4.42,4.42,0,0,1,1.29-1.4A6,6,0,0,1,61.53,4a8.67,8.67,0,0,1,2.26-.31H64a8.23,8.23,0,0,1,3.55.81A5,5,0,0,1,70,7.05L66.6,8.43a2.52,2.52,0,0,0-1.21-1.24,3.67,3.67,0,0,0-1.6-.39h-.06a3,3,0,0,0-1.38.34A1,1,0,0,0,61.7,8a.9.9,0,0,0,.54.8,6.6,6.6,0,0,0,1.4.53l2.22.53a6.4,6.4,0,0,1,3.3,1.7,4,4,0,0,1,.64,4.56,4.59,4.59,0,0,1-1.29,1.52,6.14,6.14,0,0,1-1.93,1.05,8,8,0,0,1-2.43.38h-.22Zm12.63,0H72.7V9.28h3.86v9.8Z"/><path id="Shape" class="cls-3" d="M72.7,3.68h3.88V7.54"/></g></g></g></g></svg>