<svg xmlns="http://www.w3.org/2000/svg" xmlns:xlink="http://www.w3.org/1999/xlink" viewBox="0 0 259.4 40"><defs><style>.cls-1{fill:none;}.cls-2{fill:#071fc8;}.cls-3{clip-path:url(#clip-path);}.cls-4{fill:#ff794d;}.cls-5{fill:#2c2e37;}.cls-6{fill:#757b8e;}</style><clipPath id="clip-path"><path class="cls-1" d="M30.55,40a28.73,28.73,0,0,1-12.29-2.76,27.62,27.62,0,0,1-10-8.07l-8-10.32A1.26,1.26,0,0,1,.53,17a1.22,1.22,0,0,1,.8-.26,1.32,1.32,0,0,1,1.07.51l8,10.33a24.78,24.78,0,0,0,9.07,7.3,26.21,26.21,0,0,0,11.12,2.49,25.72,25.72,0,0,0,7.83-1.22,25.27,25.27,0,0,0,7.28-3.7,1.35,1.35,0,0,1,1.86.26,1.21,1.21,0,0,1,.26,1,1.28,1.28,0,0,1-.52.86,28,28,0,0,1-8,4.1A28.58,28.58,0,0,1,30.55,40Zm-.82-6.45a20.68,20.68,0,0,1-16.54-8.24L5.43,15A1.3,1.3,0,0,1,7.5,13.42l7.77,10.33a17.63,17.63,0,0,0,6.5,5.37,18.13,18.13,0,0,0,8,1.83,17.92,17.92,0,0,0,10.83-3.61,1.3,1.3,0,0,1,1.69,2l-.13.09a20.41,20.41,0,0,1-7.4,3.53,20.89,20.89,0,0,1-5,.61ZM50.37,31a1.32,1.32,0,0,1-1-.52L41.52,20.1a11.59,11.59,0,0,0-16.19-2.29,1.3,1.3,0,1,1-1.56-2.08,14.16,14.16,0,0,1,8.49-2.83,13.6,13.6,0,0,1,2,.15,14.07,14.07,0,0,1,9.33,5.49l7.8,10.35a1.3,1.3,0,0,1-1,2.08Zm3.88-3.87a1.28,1.28,0,0,1-1-.52L45.44,16.25a17.79,17.79,0,0,0-6.5-5.37,18.14,18.14,0,0,0-8-1.83,17.91,17.91,0,0,0-10.82,3.61,1.3,1.3,0,1,1-1.56-2.07A20.43,20.43,0,0,1,31,6.45a20.9,20.9,0,0,1,9.1,2.1,20.38,20.38,0,0,1,7.43,6.14L55.28,25A1.3,1.3,0,0,1,55,26.84a1.26,1.26,0,0,1-.77.26Zm-24.51,0a14.24,14.24,0,0,1-6.25-1.44,13.94,13.94,0,0,1-5.1-4.2l-7.8-10.34a1.31,1.31,0,0,1,2.09-1.57l7.8,10.35a11.34,11.34,0,0,0,4.16,3.43,11.69,11.69,0,0,0,5.1,1.17,11.42,11.42,0,0,0,6.93-2.31,1.3,1.3,0,0,1,1.56,2.08h0a14,14,0,0,1-8.49,2.83Zm30.93-3.87a1.34,1.34,0,0,1-1.06-.52l-8-10.32A25.16,25.16,0,0,0,35,2.84a25.66,25.66,0,0,0-3.61-.25A25.4,25.4,0,0,0,16.34,7.51a1.34,1.34,0,0,1-1.86-.26,1.25,1.25,0,0,1-.26-1,1.28,1.28,0,0,1,.52-.86A28,28,0,0,1,24.72.8,28.72,28.72,0,0,1,31.44,0a29.06,29.06,0,0,1,4,.27,28.49,28.49,0,0,1,10.1,3.4,27.45,27.45,0,0,1,8.27,7.16l8,10.32A1.27,1.27,0,0,1,61.47,23a1.41,1.41,0,0,1-.8.26Z"/></clipPath></defs><title>Recurso 3</title><g id="Capa_2" data-name="Capa 2"><g id="Capa_1-2" data-name="Capa 1"><g id="logo_creativeagency" data-name="logo creativeagency"><g id="cc_logo" data-name="cc logo"><g id="Group_2" data-name="Group 2"><path id="Mask-2" class="cls-2" d="M30.55,40a28.73,28.73,0,0,1-12.29-2.76,27.62,27.62,0,0,1-10-8.07l-8-10.32A1.26,1.26,0,0,1,.53,17a1.22,1.22,0,0,1,.8-.26,1.32,1.32,0,0,1,1.07.51l8,10.33a24.78,24.78,0,0,0,9.07,7.3,26.21,26.21,0,0,0,11.12,2.49,25.72,25.72,0,0,0,7.83-1.22,25.27,25.27,0,0,0,7.28-3.7,1.35,1.35,0,0,1,1.86.26,1.21,1.21,0,0,1,.26,1,1.28,1.28,0,0,1-.52.86,28,28,0,0,1-8,4.1A28.58,28.58,0,0,1,30.55,40Zm-.82-6.45a20.68,20.68,0,0,1-16.54-8.24L5.43,15A1.3,1.3,0,0,1,7.5,13.42l7.77,10.33a17.63,17.63,0,0,0,6.5,5.37,18.13,18.13,0,0,0,8,1.83,17.92,17.92,0,0,0,10.83-3.61,1.3,1.3,0,0,1,1.69,2l-.13.09a20.41,20.41,0,0,1-7.4,3.53,20.89,20.89,0,0,1-5,.61ZM50.37,31a1.32,1.32,0,0,1-1-.52L41.52,20.1a11.59,11.59,0,0,0-16.19-2.29,1.3,1.3,0,1,1-1.56-2.08,14.16,14.16,0,0,1,8.49-2.83,13.6,13.6,0,0,1,2,.15,14.07,14.07,0,0,1,9.33,5.49l7.8,10.35a1.3,1.3,0,0,1-1,2.08Zm3.88-3.87a1.28,1.28,0,0,1-1-.52L45.44,16.25a17.79,17.79,0,0,0-6.5-5.37,18.14,18.14,0,0,0-8-1.83,17.91,17.91,0,0,0-10.82,3.61,1.3,1.3,0,1,1-1.56-2.07A20.43,20.43,0,0,1,31,6.45a20.9,20.9,0,0,1,9.1,2.1,20.38,20.38,0,0,1,7.43,6.14L55.28,25A1.3,1.3,0,0,1,55,26.84a1.26,1.26,0,0,1-.77.26Zm-24.51,0a14.24,14.24,0,0,1-6.25-1.44,13.94,13.94,0,0,1-5.1-4.2l-7.8-10.34a1.31,1.31,0,0,1,2.09-1.57l7.8,10.35a11.34,11.34,0,0,0,4.16,3.43,11.69,11.69,0,0,0,5.1,1.17,11.42,11.42,0,0,0,6.93-2.31,1.3,1.3,0,0,1,1.56,2.08h0a14,14,0,0,1-8.49,2.83Zm30.93-3.87a1.34,1.34,0,0,1-1.06-.52l-8-10.32A25.16,25.16,0,0,0,35,2.84a25.66,25.66,0,0,0-3.61-.25A25.4,25.4,0,0,0,16.34,7.51a1.34,1.34,0,0,1-1.86-.26,1.25,1.25,0,0,1-.26-1,1.28,1.28,0,0,1,.52-.86A28,28,0,0,1,24.72.8,28.72,28.72,0,0,1,31.44,0a29.06,29.06,0,0,1,4,.27,28.49,28.49,0,0,1,10.1,3.4,27.45,27.45,0,0,1,8.27,7.16l8,10.32A1.27,1.27,0,0,1,61.47,23a1.41,1.41,0,0,1-.8.26Z"/><g class="cls-3"><g id="Group_2-2" data-name="Group 2-2"><path id="Rectangle" class="cls-4" d="M0,0H31V40H0Z"/></g></g></g></g><g id="Group"><path id="Creative" class="cls-5" d="M164.33,27.42a7.3,7.3,0,0,1-2.69-.51,6.42,6.42,0,0,1-3.56-3.56,7.26,7.26,0,0,1-.51-2.72,7.08,7.08,0,0,1,.5-2.61,6.57,6.57,0,0,1,3.47-3.63,6.44,6.44,0,0,1,2.66-.55,7,7,0,0,1,2.73.51,5.49,5.49,0,0,1,2,1.4,6.08,6.08,0,0,1,1.22,2.12,8,8,0,0,1,.42,2.65v.31a2.85,2.85,0,0,0,0,.29,2.64,2.64,0,0,0,0,.29h-9.59a3.47,3.47,0,0,0,.43,1.33,3.13,3.13,0,0,0,.8.94,3.2,3.2,0,0,0,1.05.55,4.66,4.66,0,0,0,1.17.17,3.39,3.39,0,0,0,1.94-.54,3.8,3.8,0,0,0,1.21-1.34l2.83,1.4A7.12,7.12,0,0,1,168,26.45,6.67,6.67,0,0,1,164.33,27.42Zm-.13-10.79a3.15,3.15,0,0,0-1.92.62A3.31,3.31,0,0,0,161.11,19h6.16a2.17,2.17,0,0,0-.22-.75,2.75,2.75,0,0,0-.57-.78,2.9,2.9,0,0,0-.94-.6A3.21,3.21,0,0,0,164.2,16.63ZM118.1,27.42a5.4,5.4,0,0,1-1.86-.33,4.89,4.89,0,0,1-1.52-.9,4,4,0,0,1-1-1.38,4.29,4.29,0,0,1-.37-1.77,3.88,3.88,0,0,1,1.49-3.14,4.94,4.94,0,0,1,1.65-.87,6.55,6.55,0,0,1,2.06-.3,8.94,8.94,0,0,1,2.06.2,9.21,9.21,0,0,1,1.33.4v-.39a2.11,2.11,0,0,0-.82-1.67,3,3,0,0,0-2-.66,3.71,3.71,0,0,0-3,1.48l-2.47-1.69a6.72,6.72,0,0,1,5.54-2.55,6.61,6.61,0,0,1,4.53,1.39,5.25,5.25,0,0,1,1.56,4.12V27h-3.36V25.65h-.21a6,6,0,0,1-1.44,1.25,4.1,4.1,0,0,1-2.17.52Zm1.2-6.22a2.94,2.94,0,0,0-1.88.54,1.61,1.61,0,0,0-.67,1.31,1.47,1.47,0,0,0,.64,1.24,2.37,2.37,0,0,0,1.47.47,3.08,3.08,0,0,0,2.22-.9,2.88,2.88,0,0,0,.85-2,6.81,6.81,0,0,0-1.24-.45,5.42,5.42,0,0,0-1.4-.17Zm-13.58,6.22a7.3,7.3,0,0,1-2.69-.51,6.46,6.46,0,0,1-3.57-3.56A7.26,7.26,0,0,1,99,20.63a7.08,7.08,0,0,1,.5-2.61,6.57,6.57,0,0,1,3.47-3.63,6.44,6.44,0,0,1,2.66-.55,7,7,0,0,1,2.73.51,5.41,5.41,0,0,1,2,1.4,6.11,6.11,0,0,1,1.23,2.12,8.24,8.24,0,0,1,.41,2.65v.31a2.83,2.83,0,0,0,0,.29,1.36,1.36,0,0,0,0,.29h-9.59a3.47,3.47,0,0,0,.43,1.33,3.28,3.28,0,0,0,.8.94,3.25,3.25,0,0,0,1.06.55,4.59,4.59,0,0,0,1.17.17,3.38,3.38,0,0,0,1.93-.54,3.8,3.8,0,0,0,1.21-1.34l2.84,1.4a7.3,7.3,0,0,1-2.38,2.53,6.72,6.72,0,0,1-3.66,1Zm-.13-10.79a3.15,3.15,0,0,0-1.92.62A3.31,3.31,0,0,0,102.5,19h6.15a2.17,2.17,0,0,0-.22-.75,2.57,2.57,0,0,0-.57-.78,2.9,2.9,0,0,0-.94-.6,3.21,3.21,0,0,0-1.34-.23ZM80.71,27.42a9.84,9.84,0,0,1-3.86-.76,9.45,9.45,0,0,1-5.13-5.13,10.06,10.06,0,0,1,0-7.67,9.44,9.44,0,0,1,5.13-5.14A9.83,9.83,0,0,1,80.71,8a9.34,9.34,0,0,1,3.94.78,9,9,0,0,1,3,2.26L85.21,13.4a6.75,6.75,0,0,0-1.91-1.53,5.39,5.39,0,0,0-2.56-.57,6.61,6.61,0,0,0-2.45.45,5.89,5.89,0,0,0-2,1.29,6.08,6.08,0,0,0-1.35,2,7.36,7.36,0,0,0,0,5.28,6.25,6.25,0,0,0,1.34,2,6.07,6.07,0,0,0,2,1.28,6.61,6.61,0,0,0,2.44.46,5.88,5.88,0,0,0,2.77-.64,6.71,6.71,0,0,0,2.15-1.81L88.15,24a9.24,9.24,0,0,1-3.25,2.53A9.8,9.8,0,0,1,80.71,27.42Zm52.45-.21a4.89,4.89,0,0,1-1.73-.3,3.6,3.6,0,0,1-1.28-.82,4.43,4.43,0,0,1-1.23-3.33V17.17h-2.23V14.26h2.23v-3.9h3.41v3.9h3.12v2.91h-3.12v4.94a3.81,3.81,0,0,0,.09.82A1.39,1.39,0,0,0,133.81,24a1.84,1.84,0,0,0,1.2-.34l1,3a5.36,5.36,0,0,1-1.28.43A7.93,7.93,0,0,1,133.16,27.21ZM151.85,27h-3.36l-5.43-12.74h3.87l3.17,8.11h.19l3.2-8.11h3.84L151.85,27Zm-10.36,0h-3.41V14.26h3.41V27Zm-48,0H90.08V14.26h3.2V16h.21a3.31,3.31,0,0,1,.62-.86,4.75,4.75,0,0,1,.87-.68,4.51,4.51,0,0,1,1-.44,4.13,4.13,0,0,1,1.11-.15,4,4,0,0,1,1.15.13,2.94,2.94,0,0,1,.82.33l-.91,3.1a3.35,3.35,0,0,0-.69-.25,4,4,0,0,0-.92-.09,2.93,2.93,0,0,0-1.27.27,2.82,2.82,0,0,0-1,.77,3.42,3.42,0,0,0-.62,1.16,4.38,4.38,0,0,0-.22,1.44V27Zm46.28-14.59a2.2,2.2,0,0,1-1.54-.63,2.29,2.29,0,0,1-.47-.69,2.31,2.31,0,0,1-.17-.86,2.27,2.27,0,0,1,.17-.86,2.21,2.21,0,0,1,3.57-.69,2.17,2.17,0,0,1,0,3.1A2.15,2.15,0,0,1,139.77,12.41Z"/><path id="Agency" class="cls-6" d="M198,33a7.1,7.1,0,0,1-2-.27,6.22,6.22,0,0,1-1.7-.77A5.66,5.66,0,0,1,193,30.82a5.06,5.06,0,0,1-.83-1.51l2.26-.93a3.66,3.66,0,0,0,1.36,1.79,3.77,3.77,0,0,0,2.23.68,4,4,0,0,0,3-1.17,4.59,4.59,0,0,0,1.1-3.23V25.23h-.1a4.73,4.73,0,0,1-1.84,1.6,5.55,5.55,0,0,1-2.51.59,5.7,5.7,0,0,1-4.29-2,7.11,7.11,0,0,1-1.76-4.84,7,7,0,0,1,1.76-4.81,5.63,5.63,0,0,1,4.29-2,5.41,5.41,0,0,1,2.51.58,4.74,4.74,0,0,1,1.84,1.6h.1V14.26h2.28V26.45a6.51,6.51,0,0,1-1.74,4.81A6.32,6.32,0,0,1,198,33Zm.07-17a3.75,3.75,0,0,0-2.88,1.3,4.75,4.75,0,0,0-1.17,3.3,4.7,4.7,0,0,0,1.17,3.3A3.88,3.88,0,0,0,201,24a4.78,4.78,0,0,0,1.17-3.33,4.8,4.8,0,0,0-1.17-3.3,3.72,3.72,0,0,0-2.89-1.3Zm53.33,16.59h-2.47l3-6.43-5.25-11.93h2.6l3.8,9.15h.05l3.69-9.15h2.6l-8,18.36Zm-10.95-5.2a6.36,6.36,0,0,1-4.71-1.93,6.93,6.93,0,0,1-1.84-4.86,6.79,6.79,0,0,1,1.85-4.86,6.34,6.34,0,0,1,4.7-1.93,5.85,5.85,0,0,1,5.59,3.67l-2.18.91A3.61,3.61,0,0,0,240.31,16a3.74,3.74,0,0,0-2.84,1.32,4.86,4.86,0,0,0-1.17,3.28,4.86,4.86,0,0,0,1.17,3.28A3.91,3.91,0,0,0,244,22.84l2.13.91a5.8,5.8,0,0,1-2.2,2.69,6.25,6.25,0,0,1-3.47,1Zm-27.73,0a6.17,6.17,0,0,1-4.63-1.93,6.78,6.78,0,0,1-1.82-4.86,6.94,6.94,0,0,1,1.77-4.85,6.35,6.35,0,0,1,9-.1,7.3,7.3,0,0,1,1.67,5.13l0,.26h-10a4.19,4.19,0,0,0,1.24,3,4,4,0,0,0,5.7-.07,3.82,3.82,0,0,0,.75-1.07l2.13,1a6.3,6.3,0,0,1-2.38,2.53,6.69,6.69,0,0,1-3.44.91ZM212.52,16a3.45,3.45,0,0,0-2.32.83,4,4,0,0,0-1.29,2.24h7.3a3.17,3.17,0,0,0-1.08-2.2A3.76,3.76,0,0,0,212.52,16Zm10.62,11h-2.39V14.26H223V16h.1a4.25,4.25,0,0,1,1.67-1.56,4.87,4.87,0,0,1,2.36-.63,4.77,4.77,0,0,1,3.6,1.34A5.4,5.4,0,0,1,232,19v8h-2.39V19.15c0-2.07-1.11-3.12-3.15-3.12a3,3,0,0,0-2.39,1.15,4.23,4.23,0,0,0-1,2.77V27ZM177,27h-2.65l7-18.62H184l7,18.62H188.4l-1.79-5h-7.83L177,27Zm5.67-15.68-3,8.4h6.19l-3-8.4Z"/></g></g></g></g></svg>